HIERARCHY
ROOT pelvis
{
  OFFSET 0 100 0
  CHANNELS 6 Xposition Yposition Zposition Zrotation Xrotation Yrotation
  JOINT pelvis_right_femur
  {
    OFFSET -10.78128 -3.44521 -0.5502486
    CHANNELS 3 Zrotation Xrotation Yrotation
    JOINT right_femur_tibia
    {
      OFFSET -0.8047443 -44.0398 -0.1307829
      CHANNELS 3 Zrotation Xrotation Yrotation
      JOINT right_tibia_foot
      {
        OFFSET 3.006224 -47.83518 -5
        CHANNELS 3 Zrotation Xrotation Yrotation
        End Site
        {
          OFFSET 0 -5 15
        }
      }
    }
  }
  JOINT pelvis_left_femur
  {
    OFFSET 10.78128 -3.44521 -0.5502486
    CHANNELS 3 Zrotation Xrotation Yrotation
    JOINT left_femur_tibia
    {
      OFFSET 0.8047443 -44.0398 -0.1307829
      CHANNELS 3 Zrotation Xrotation Yrotation
      JOINT left_tibia_foot
      {
        OFFSET -4.370144 -48.10324 -4.275266
        CHANNELS 3 Zrotation Xrotation Yrotation
        End Site
        {
          OFFSET 0 -5 15
        }
      }
    }
  }
  JOINT pelvis_spine1
  {
    OFFSET 0 6.468898 -3.129235
    CHANNELS 3 Zrotation Xrotation Yrotation
    JOINT spine1
    {
      OFFSET 0 23.15396 4.99043
      CHANNELS 3 Zrotation Xrotation Yrotation
      JOINT spine2
      {
        OFFSET 0 20.79997 -5.064912
        CHANNELS 3 Zrotation Xrotation Yrotation
        JOINT neck
        {
          OFFSET 0 14.38658 9.616178
          CHANNELS 3 Zrotation Xrotation Yrotation
          End Site
          {
            OFFSET 0 20 0
          }
        }
      }
      JOINT right_manubrium
      {
        OFFSET -5.722621 16.35077 3.967754
        CHANNELS 3 Zrotation Xrotation Yrotation
        JOINT right_clavicle
        {
          OFFSET -13.16364 1.694482 -4.693211
          CHANNELS 3 Zrotation Xrotation Yrotation
          JOINT right_humerus
          {
            OFFSET -28.5034 -0.3100689 -2.792744
            CHANNELS 3 Zrotation Xrotation Yrotation
            JOINT right_radius
            {
              OFFSET -25.15693 0.02248979 -1.271978
              CHANNELS 3 Zrotation Xrotation Yrotation
              End Site
              {
                OFFSET -15 0 0
              }
            }
          }
        }
      }
      JOINT left_manubrium
      {
        OFFSET 5.722621 16.35077 3.967754
        CHANNELS 3 Zrotation Xrotation Yrotation
        JOINT left_clavicle
        {
          OFFSET 13.16364 1.694482 -4.693211
          CHANNELS 3 Zrotation Xrotation Yrotation
          JOINT left_humerus
          {
            OFFSET 29.39168 -1.063119 -2.237045
            CHANNELS 3 Zrotation Xrotation Yrotation
            JOINT left_radius
            {
              OFFSET 24.59957 -0.9528479 0.9047498
              CHANNELS 3 Zrotation Xrotation Yrotation
              End Site
              {
                OFFSET 15 -0 -0
              }
            }
          }
        }
      }
    }
  }
}
MOTION
Frames: 17
Frame Time: 0.0416666666667
0 103.5113 0 0.5962264 -1.412547 0.1358225 3.346876 -16.39591 7.887733 -0 39.23251 -0 -5.810184 -11.57231 -2.084909 -6.831493 8.360528 -21.02504 -0 5.139841 -0 11.46763 -14.58282 26.27833 -2.965804 -3.840383 4.819456 2.239587 11.22738 -7.550249 1.247365 21.93943 6.740481 2.884621 -25.11592 9.430092 5.45824 -21.30965 12.34751 86.37501 32.41519 -18.21049 -0 0 16.08006 -10.00519 9.137321 6.134335 6.038784 -20.61962 -2.349595 -93.01394 21.35154 21.84042 0 0 -14.36688 14.29761 16.38699 -2.277561
0.4174022 103.373 2.133596 0.201705 -0.9049087 0.2696932 3.9501 -18.91168 7.657707 -0 37.84363 -0 -6.230344 -11.16247 -1.987805 -6.536819 9.31121 -20.85043 -0 5.686474 -0 10.46648 -15.67021 25.58654 -2.801273 -3.346791 4.447257 2.388121 10.72248 -7.580628 1.270191 21.89514 6.905936 2.983737 -25.4067 9.600981 5.326537 -20.72504 12.11012 86.52713 32.72245 -18.56728 -0 0 15.43734 -9.527075 8.736292 5.78419 6.158008 -20.60915 -2.164296 -92.77284 22.19655 21.25743 0 0 -15.14123 13.69797 16.3933 -1.517961
0.7753056 103.2061 4.435613 -0.1991498 0.1389287 0.4200739 4.931518 -22.50906 7.808692 -0 34.96179 -0 -6.30229 -11.3456 -1.894542 -6.313309 10.29534 -20.71491 -0 6.404854 -0 10.40075 -16.56994 25.26266 -2.709288 -2.924831 4.260402 2.709612 10.23158 -7.747023 1.332183 21.61367 7.040524 3.065518 -25.87384 9.846165 5.417039 -20.10506 11.92511 86.49657 33.72489 -19.03512 -0 0 14.84004 -8.580755 8.578531 5.247343 6.402102 -20.64749 -1.791989 -92.17601 22.39718 20.25737 0 0 -16.51669 14.06284 15.85357 -1.833629
1.086361 102.9943 6.922312 -0.5271865 1.090411 0.6068773 5.769703 -25.53387 7.971624 -0 32.2114 -0 -6.358007 -11.37427 -1.853835 -6.161289 11.23711 -20.58918 -0 7.139652 -0 9.996324 -17.54617 24.81472 -2.672902 -2.535133 4.088454 2.996205 9.723408 -7.876624 1.392983 21.34065 7.160451 3.147526 -26.28798 10.0599 5.491859 -19.51638 11.70233 86.49996 34.67035 -19.48259 -0 0 14.30911 -7.714507 8.407174 4.802165 6.593795 -20.62201 -1.416894 -91.72755 22.85592 19.4929 0 0 -17.7619 13.86837 15.34959 -1.540454
1.382785 102.624 9.845305 -0.7832317 1.223729 0.8252918 6.003711 -27.61348 6.712683 -0 28.80991 -0 -6.821118 -8.765318 -1.333902 -5.942001 11.74306 -19.23969 -0 8.265745 -0 9.385182 -18.20671 23.65802 -2.472961 -2.131956 3.818227 3.071546 9.843933 -7.921894 1.336614 21.21082 7.346283 3.29897 -26.46955 10.0185 4.918415 -19.2092 11.74364 87.23903 33.74266 -20.00522 -0 0 12.98222 -8.760602 8.47759 5.289098 6.874835 -21.37996 -1.703004 -90.73703 21.8712 18.18557 0 0 -19.36055 14.62147 14.88127 -2.492469
1.679743 102.0099 13.34375 -0.8231099 0.6398978 1.064069 5.543348 -28.63321 4.292915 -0 24.69582 -0 -7.463412 -4.862029 -0.5535859 -5.780501 12.04577 -17.08853 -0 9.483209 -0 8.633117 -18.61743 22.06258 -2.221877 -1.801702 3.537393 2.942664 10.37079 -7.895326 1.19267 21.27779 7.542003 3.446062 -26.24208 9.745348 3.837263 -19.07481 11.94294 88.54513 31.41606 -20.65268 -0 0 11.08075 -11.16021 8.675241 6.371469 7.197933 -22.71038 -2.524183 -89.32094 20.04284 16.33838 0 0 -21.53966 15.8006 14.46956 -4.078033
1.966815 101.0851 17.50454 -0.5620885 -0.5504571 1.315844 4.529122 -28.61178 0.9988889 -0 19.5788 -0 -8.140577 -0.71986 0.2632812 -5.74203 12.42834 -14.45678 -0 10.80366 -0 7.79359 -18.85797 20.28393 -1.99327 -1.614773 3.296215 2.636274 11.0839 -7.805441 1.010611 21.60112 7.670653 3.517617 -25.47425 9.266866 2.312487 -18.99346 12.18205 90.32971 28.06249 -21.47713 -0 0 8.710161 -14.40302 8.865401 7.723342 7.512714 -24.43409 -3.760634 -87.57689 17.88326 13.90812 0 0 -24.54079 16.97204 14.17835 -5.802269
2.214588 99.87701 22.35628 -0.06805084 -2.104511 1.577599 3.406774 -27.70255 -2.466297 -0 13.97864 -0 -8.783267 2.771762 0.8285011 -5.805877 13.12485 -11.79375 -0 12.46858 -0 6.822058 -18.99567 18.59496 -1.794314 -1.636195 3.102455 2.229092 11.74757 -7.688715 0.8593973 22.15952 7.64029 3.458893 -24.25719 8.660784 0.528168 -18.89276 12.33488 92.37912 24.27415 -22.43893 -0 0 6.187231 -17.75545 8.939813 8.951995 7.705817 -26.21761 -5.174209 -85.81364 16.03682 11.25758 0 0 -28.07186 17.568 14.19326 -6.962267
2.389829 98.53619 27.8845 0.4305282 -3.744199 1.821646 2.706752 -26.20177 -5.326821 -0 9.037509 -0 -9.460811 5.315033 0.9752252 -5.846761 14.12672 -9.42466 -0 15.00429 -0 5.686506 -18.91158 17.15368 -1.518263 -1.895693 2.928057 1.812082 12.26875 -7.605166 0.7982503 22.83269 7.390174 3.250572 -22.8887 8.035093 -1.305685 -18.79641 12.33806 94.46519 20.57661 -23.4228 -0 0 3.910659 -20.62718 8.898562 9.795129 7.667202 -27.74586 -6.520362 -84.36121 14.82317 8.976485 0 0 -31.38332 17.38005 14.63095 -7.219262
2.464786 97.32752 33.99601 0.6336369 -5.140643 1.971063 2.823156 -24.48598 -6.865165 -0 6.092735 -0 -10.25414 6.752474 0.6667041 -5.691926 15.12338 -7.654865 -0 19.03206 -0 4.428365 -18.30864 16.04446 -1.026877 -2.35559 2.764898 1.483472 12.64189 -7.619401 0.8686917 23.41763 6.922634 2.909927 -21.77088 7.530401 -2.907994 -18.76119 12.18144 96.28661 17.55672 -24.27227 -0 0 2.372293 -22.49987 8.831768 10.09204 7.336825 -28.70671 -7.532739 -83.54179 14.34282 7.741118 0 0 -33.44576 16.5384 15.39641 -6.601518
2.422773 96.53692 40.49887 0.373525 -6.060943 1.929072 3.773285 -22.7439 -6.79474 -0 5.752847 -0 -11.1494 6.954188 0.0002275297 -5.24035 15.56669 -6.677756 -0 24.99014 -0 3.185601 -16.87752 15.27596 -0.2856828 -2.902188 2.668384 1.306025 12.92734 -7.758817 1.064598 23.73778 6.323087 2.502947 -21.1765 7.244124 -4.017013 -18.82022 11.92379 97.56794 15.69179 -24.88238 -0 0 1.901311 -23.13844 8.874319 9.8523 6.739512 -28.9438 -8.047294 -83.51655 14.49136 7.931356 0 0 -33.56501 15.40215 16.20399 -5.448376
2.267817 96.34334 47.14796 -0.223595 -6.550334 1.647771 5.155125 -20.77075 -5.490182 -0 7.386848 -0 -12.02839 5.996812 -0.8393446 -4.564759 14.89124 -6.417004 -0 32.76101 -0 2.16731 -14.5666 14.81939 0.555566 -3.38581 2.748336 1.260096 13.23678 -7.973263 1.330877 23.76668 5.712105 2.127912 -21.06284 7.153273 -4.543705 -18.98696 11.68364 98.21483 15.05111 -25.21432 -0 0 2.434798 -22.80702 9.130062 9.296209 5.97228 -28.58761 -8.133007 -84.17329 14.97505 9.376541 0 0 -31.87398 14.34827 16.77923 -4.207698
2.024462 96.74877 53.73331 -0.8155624 -6.943376 1.143987 6.393005 -18.13195 -3.779419 -0 9.552426 -0 -12.74934 4.355387 -1.673383 -3.855243 12.80413 -6.504164 -0 41.47471 -0 1.569892 -11.70909 14.67014 1.247296 -3.699408 3.096226 1.245581 13.70634 -8.14791 1.609279 23.63262 5.149388 1.851681 -21.11579 7.121991 -4.657795 -19.30752 11.57862 98.38009 15.16806 -25.23703 -0 0 3.597562 -22.19177 9.634212 8.772083 5.164632 -27.99193 -8.068437 -85.18279 15.40667 11.51303 0 0 -29.19944 13.57922 17.04934 -3.194191
1.71854 97.60392 60.12785 -1.121889 -7.619695 0.4612591 7.130967 -14.55564 -2.37604 -0 10.99389 -0 -13.2151 2.751393 -2.399079 -3.218516 9.40228 -6.505412 -0 49.66201 -0 1.491001 -8.831521 14.8613 1.625757 -3.831121 3.7136 1.148736 14.44948 -8.175126 1.872947 23.47244 4.604483 1.666004 -21.01135 6.99749 -4.674221 -19.89719 11.66826 98.32511 15.31765 -24.8835 -0 0 5.066947 -21.99845 10.38016 8.598869 4.431942 -27.4939 -8.155865 -86.23221 15.45594 13.85709 0 0 -26.41252 13.08141 17.13192 -2.479264
1.365092 98.67804 66.27319 -1.112672 -8.738364 -0.3516073 7.413997 -10.1365 -1.515299 -0 11.25052 -0 -13.38246 1.734648 -2.985816 -2.563397 5.056376 -6.162244 -0 55.67568 -0 1.898768 -6.33173 15.39175 1.718266 -3.843081 4.506042 0.9118398 15.50719 -8.015408 2.111668 23.2994 4.019701 1.511 -20.62705 6.696144 -4.84101 -20.9118 11.94999 98.22808 14.94453 -24.06533 -0 0 6.828729 -22.58919 11.35608 8.965962 3.831053 -27.22811 -8.563728 -87.21111 14.9468 16.31196 0 0 -23.9482 12.70775 17.18576 -1.937194
0.9827325 99.72179 72.15283 -0.9708634 -10.16643 -1.255219 7.526349 -5.269453 -1.048038 -0 10.58411 -0 -13.24428 1.366644 -3.438331 -1.68687 0.2464837 -5.442427 -0 58.1551 -0 2.659247 -4.33844 16.14385 1.695432 -3.808185 5.3345 0.5556852 16.81288 -7.701501 2.304832 23.00808 3.373538 1.319736 -20.05069 6.221615 -5.209515 -22.46835 12.38088 98.1112 13.89385 -22.71878 -0 0 9.118934 -23.89455 12.55208 9.917754 3.34567 -27.11401 -9.287821 -88.18628 13.88616 19.08044 0 0 -21.80782 12.26481 17.29418 -1.341749
0.6131077 100.5169 77.78387 -0.9373447 -11.57737 -2.239929 7.72594 -0.4789206 -0.7064469 -0 9.617057 -0 -12.81801 1.206357 -3.774104 -0.4443634 -4.522371 -4.467081 -0 56.408 -0 3.583961 -2.802178 16.87867 1.74699 -3.769095 6.075846 0.1618797 18.18467 -7.30931 2.419905 22.47304 2.689521 1.038298 -19.46829 5.641054 -5.641168 -24.56129 12.88855 97.87602 12.38831 -20.85354 -0 0 12.18676 -25.5283 13.94444 11.36467 2.914948 -26.95272 -10.17382 -89.25396 12.45076 22.37036 0 0 -19.80748 11.57393 17.43646 -0.4660644
